<svg xmlns="http://www.w3.org/2000/svg" xmlns:xlink="http://www.w3.org/1999/xlink" version="1.1" width="176" height="200" style=""><rect id="backgroundrect" width="100%" height="100%" x="0" y="0" fill="none" stroke="none"/><g class="currentLayer" style=""><title>Layer 1</title><g data-paper-data="{&quot;fillRule&quot;:&quot;evenodd&quot;,&quot;isIcon&quot;:true,&quot;iconStyle&quot;:&quot;standalone&quot;,&quot;selectedEffects&quot;:{&quot;container&quot;:&quot;&quot;,&quot;transformation&quot;:&quot;&quot;,&quot;pattern&quot;:&quot;&quot;},&quot;bounds&quot;:{&quot;x&quot;:210.72379846874364,&quot;y&quot;:114.99999999999999,&quot;width&quot;:128.5524030625127,&quot;height&quot;:146.08227620740087},&quot;iconType&quot;:&quot;icon&quot;,&quot;rawIconId&quot;:&quot;224067&quot;,&quot;isDetailed&quot;:false}" id="svg_1" class="" opacity="1" stroke-width="19" stroke="none" fill="#f2a900" fill-opacity="1"><path d="M88.57142853736877,1.1428571939468384 l-27.77778,16.22222 l27.77778,16 l-27.77778,16 l-27.77778,-16 l-28,16 l28,16.22222 l27.77778,-16.22222 l27.77778,16.22222 l-27.77778,16 l27.77778,16 l27.77778,-16 l-27.77778,-16 l27.77778,-16.22222 l-27.77778,-16 l27.77778,-16 zM172.1269885373688,49.36507719394684 l-28,-16 l-27.77778,16 l27.77778,16.22222 zM0.5714285373687744,56.69841719394684 v32.22222 l28,16 v32 l-28,-16 v32.22222 l28,16 v-32.22222 l27.77778,16.22222 v32 l27.77778,16 v-32 l-27.77778,-16 v-32.22222 l27.77778,16 v-32 l-27.77778,-16 v32 l-27.77778,-16 v-32.22222 zM148.57142853736877,104.92063719394685 l28,-16 v-32.22222 l-28,16 zM148.57142853736877,136.92063719394685 v-32 l-27.77778,16 v-32 l-27.77778,16 v32 l27.77778,-16 v32.22222 l-27.77778,16 v32 l27.77778,-16 v-32 zM148.57142853736877,136.92063719394685 l28,-16 v32.22222 l-28,16 z" fill-rule="evenodd" id="svg_2" opacity="1" stroke-width="19" stroke="none" fill="#f2a900" fill-opacity="1"/></g></g></svg>